<svg xmlns="http://www.w3.org/2000/svg" style="display: none;">
    <symbol id="welcome" viewBox="0 0 58 32" width="100%" height="100%"><path fill="#4b84a1" d="M1.288 3.573c.611-.023 1.224.016 1.82.157.591.14 1.209.371 1.697.741.21.159.415.306.603.493.192.19.366.398.519.62.297.432.515.913.644 1.421.275 1.088.091 2.176-.4 3.172-.147.298-.321.564-.513.834-.191.268-.374.506-.64.703l-.308.261c-.132.114-.282.202-.43.293-.282.172-.572.332-.861.492-.282.157-.564.315-.837.487l-.372.215-.307.243c-.434.295-.837.683-1.055 1.168-.208.465-.215 1.021.078 1.453.3.442.792.76 1.32.838.61.09 1.221-.012 1.799-.215s1.146-.473 1.673-.784c1.17-.69 2.337-1.383 3.528-2.036.591-.324 1.184-.641 1.796-.924.602-.279 1.195-.568 1.813-.809 1.149-.447 2.576-.584 3.565.287.24.211.399.472.527.763l.042-.161c-1.518 1.074-3.098 2.056-4.628 3.112-.089.062-.066.176.028.215.129.054.38.049.376-.149-.004-.232-.293-.136-.404-.066-.073.046-.079.158 0 .203.183.104.397.127.598.182l.683.186c.46.124.922.244 1.384.361.922.233 1.847.452 2.775.659l-.082-.082c.079.305-.027.616-.018.925l.149-.113-.012.01-.083.201-.019-.014.115-.197c-.948-.22-1.898-.438-2.841-.682-.456-.118-.912-.218-1.372-.32-.472-.105-.943-.249-1.409-.382-.146-.042-.208.185-.063.227.457.13.918.27 1.381.376l.664.135.736.192c.943.244 1.892.462 2.841.682.122.028.186-.107.115-.197l-.147-.055c-.111 0-.144.125-.083.201l.116.051c.072.019.151-.036.149-.113-.009-.333.096-.657.01-.988l-.082-.082c-.908-.202-1.814-.416-2.716-.644-.452-.114-.904-.232-1.354-.352l-.653-.177c-.211-.058-.471-.083-.661-.191v.203c.076-.048.112-.027.093-.124-.018-.089-.042-.058-.121-.091l.028.215c1.53-1.056 3.11-2.038 4.628-3.112.056-.04.07-.098.042-.161-.241-.548-.644-.97-1.184-1.233-.546-.265-1.187-.327-1.785-.268-.619.061-1.214.251-1.778.508l-.461.179-.48.237-.916.428c-1.232.593-2.415 1.298-3.596 1.983-1.119.649-2.236 1.435-3.52 1.721-.6.134-1.343.153-1.859-.236-.214-.161-.42-.358-.536-.603-.126-.267-.132-.583-.052-.863.153-.536.588-.967 1.038-1.272l.286-.231.392-.227c.282-.177.572-.34.862-.501.289-.161.579-.321.861-.494.276-.169.501-.379.759-.57.228-.169.412-.376.576-.607.193-.272.386-.537.541-.834.268-.514.487-1.058.58-1.632.081-.503.078-1.013-.006-1.515-.171-1.02-.7-1.973-1.471-2.663-.879-.786-2.043-1.19-3.208-1.282-.302-.024-.604-.027-.906-.015-.151.005-.152.241 0 .235zM42.263 17.176c.182.331-.098.77-.363.965-.304.224-.696.299-1.057.377-.476.103-.959.17-1.445.206-.447.033-.905.054-1.348-.032-.379-.073-.724-.225-1.001-.498-.24-.238-.414-.534-.549-.842-.132-.3-.228-.616-.313-.933-.052-.195-.099-.39-.136-.588-.04-.21-.061-.428-.121-.634-.112-.378-.378-.58-.753-.672-.429-.105-.878-.1-1.317-.077-.967.051-1.919.251-2.884.321-.903.066-1.808-.02-2.673-.294-.854-.27-1.647-.713-2.385-1.215-.426-.29-.827-.609-1.233-.924-.367-.285-.748-.557-1.178-.737-.231-.096-.47-.161-.72-.184-.16-.014-.34-.019-.485.06-.257.14-.32.606.017.688.135.033.196-.139.091-.215-.204-.147-.518-.114-.664.101-.15.222-.065.508.14.658l.119-.203c-.279-.139-.517.129-.417.409.142.397.634.208.917.36.133.072.252-.131.119-.203-.18-.097-.366-.08-.563-.104-.094-.012-.226-.04-.256-.145-.018-.063.003-.152.081-.114.138.068.24-.114.119-.203-.262-.192.029-.538.286-.352l.091-.215c-.074-.018-.073-.11-.047-.171.037-.087.133-.111.217-.12.192-.021.398.019.581.07.418.117.794.351 1.142.604.714.518 1.38 1.084 2.14 1.538.755.451 1.566.817 2.428 1.005.884.193 1.779.192 2.675.09.921-.104 1.836-.28 2.766-.282.248-.001.497.01.74.061.187.039.396.091.53.238.13.143.169.346.202.53.04.225.075.451.127.674.147.636.341 1.307.719 1.848.177.253.396.476.663.635.344.204.748.288 1.142.318.5.038 1.01-.005 1.507-.064.469-.056.939-.137 1.396-.259.379-.101.75-.262.993-.582.211-.277.342-.685.163-1.011-.073-.133-.276-.015-.203.118zM40.016 8.74c-.173-.226-.217-.519-.125-.788.115-.334.41-.507.741-.575.752-.154 1.516.138 2.177.471.625.315 1.157.863 1.357 1.545.218.741.07 1.533-.191 2.243-.266.724-.614 1.422-.949 2.116s-.678 1.385-.992 2.089l-.212.488c-.074.175-.127.376-.253.519-.129.148-.274.216-.471.155-.202-.063-.364-.207-.531-.33l-1.868-1.354-.523-.386c-.156-.117-.36-.23-.479-.384-.096-.126-.277-.214-.422-.276-.171-.073-.32-.065-.495-.009-.685.219-1.133.815-1.592 1.331-.1.113.065.28.166.166.433-.486.918-1.182 1.608-1.306.162-.029.387.092.506.197l.107.12.29.22c.346.26.696.516 1.047.77l1.001.723.486.354c.171.125.335.267.532.35.159.067.333.108.499.043.16-.063.26-.153.365-.285.102-.128.147-.298.209-.448l.27-.621c.344-.765.72-1.515 1.083-2.272.351-.734.732-1.482.963-2.264.214-.725.302-1.577-.023-2.286-.314-.683-.852-1.167-1.523-1.489-.4-.192-.821-.358-1.261-.428-.409-.065-.886-.068-1.272.105-.601.269-.833 1.084-.428 1.613.091.119.295.002.203-.119zM20.307 12.307c.234-.104.482-.149.737-.14.152.005.151-.23 0-.235-.299-.01-.584.051-.856.172-.138.062-.019.265.119.203zM19.073 13.2c.23-.195.457-.393.701-.571.121-.088.004-.293-.119-.203-.26.19-.503.4-.749.608-.116.098.052.264.166.166zM17.976 14.172l.583-.527c.114-.101-.053-.267-.166-.166l-.583.527c-.112.103.055.269.166.166zM17.183 14.926l.317-.308c.11-.105-.057-.271-.166-.166l-.317.308c-.108.106.058.273.166.166zM17.214 16.392c-.193.176-.411.358-.67.426-.242.063-.57-.012-.672-.267-.095-.237.158-.458.309-.607.193-.19.4-.366.567-.581.092-.118-.073-.286-.166-.166-.224.287-.524.502-.757.781-.188.226-.293.51-.109.774.175.251.5.361.796.313.339-.055.622-.282.869-.506.112-.102-.055-.268-.167-.167zM19.154 14.374l-.765.868c-.227.26-.435.548-.721.748-.123.086-.006.29.119.203.291-.203.506-.48.736-.746.263-.305.529-.607.798-.907.101-.112-.065-.279-.166-.166zM22.129 14.216c-1.18 1.236-2.359 2.473-3.529 3.718l.185.024-.075-.169-.215.091.075.169.215-.091c-.263-.553-.403-1.208-.072-1.764.301-.504.827-.884 1.264-1.262.397-.344.838-.7 1.132-1.141.121-.181.21-.395.206-.616-.005-.21-.065-.43-.299-.467-.133-.021-.203.098-.284.183-.113.118-.259.21-.386.314-.275.225-.537.465-.78.725-.103.111.063.277.166.166.204-.219.422-.424.651-.618l.348-.283.166-.138.133-.136-.091.012.129.051-.054-.07c.204.489-.189.899-.514 1.22-.408.402-.852.761-1.276 1.145-.369.335-.76.704-.892 1.204-.142.54.016 1.105.249 1.594.058.121.252.036.215-.091l-.099-.225c-.064-.112-.266-.036-.215.091l.099.225c.032.068.136.075.185.024 1.17-1.245 2.349-2.482 3.529-3.718.105-.11-.061-.276-.166-.166zM17.785 12.59c.36-.325.716-.655 1.088-.968.189-.16.383-.315.582-.462l.302-.214c.122-.083.211-.124.36-.118.526.021 1.052.058 1.577.084.541.027 1.083.048 1.622.1.285.027.572.026.856.063.099.013.176.003.198.11l.005.202c.004.162.002.319-.04.476-.039.147.188.209.227.063.067-.251.079-.56.038-.816-.013-.082-.052-.178-.13-.218-.106-.054-.28-.052-.399-.064-.606-.06-1.218-.092-1.826-.123-.613-.032-1.226-.059-1.839-.096-.242-.015-.484-.055-.695.086-.235.157-.463.325-.685.501-.488.386-.944.811-1.406 1.228-.113.102.054.268.166.166zM41.803 18.968c.264.383.135.832.02 1.244-.126.452-.325.855-.55 1.264-.073.133.13.252.203.119.252-.46.462-.911.601-1.417.122-.445.209-.924-.07-1.33-.085-.124-.29-.006-.203.119zM22.568 13.065c-.138.025-.276.088-.4.151-.106.054-.218.116-.215.249.007.289.295.402.539.431.292.036.582-.016.874-.017.241-.001.404.153.523.348.115.19.238.374.37.553 1.014 1.375 2.524 2.373 4.215 2.678.701.126 1.435.033 2.134-.062l.985-.148.356-.047.23-.007.007.003-.045-.056-.003-.05-.118.189c-.135.215-.276.426-.422.633-.284.402-.593.786-.929 1.147-.171.184-.353.355-.532.531l-.242.262-.24.2c-.154.136-.364.358-.583.359-.247.002-.519-.135-.734-.245-.43-.221-.887-.465-1.232-.808-.279-.278-.531-.585-.842-.828-.289-.226-.635-.387-1.01-.37-.407.018-.374.442-.153.673.127.132.284.229.398.374l.083-.201-.104-.014-.007.008.018.143-.058.047.019.001.048.017.083-.201c-.384-.041-.746-.195-1.118-.291-.176-.045-.373-.104-.556-.069-.196.038-.277.199-.231.387.074.299.348.489.572.673l.052-.197c-.218.085-.494-.138-.665.112-.214.312.323.559.517.691l.028-.215c-.21.071-.51.259-.379.522.14.282.548.28.817.292.341.015.703-.001 1.023.139.173.076.306.204.45.323l.434.345c1.161.888 2.47 1.565 3.848 2.045 1.521.53 3.11.824 4.721.862.84.02 1.68-.034 2.512-.149.433-.06.867-.13 1.292-.234.366-.09.762-.189 1.101-.355l.178-.107.203-.082c.155-.099.302-.212.437-.338.262-.244.477-.543.599-.882.255-.709-.048-1.626-.756-1.959-.136-.064-.256.139-.119.203.32.15.556.471.668.801.106.313.085.63-.036.935-.112.283-.301.529-.522.735-.109.101-.226.193-.349.275l-.311.147c-.294.187-.683.275-1.017.363-.381.1-.77.169-1.159.23-.762.119-1.533.181-2.304.185-2.812.012-5.674-.763-8.042-2.297-.325-.211-.642-.436-.947-.676-.268-.211-.514-.478-.835-.605-.324-.128-.679-.126-1.021-.139-.173-.007-.377.001-.538-.071-.239-.106-.033-.233.114-.282.099-.033.113-.157.028-.215l-.304-.206c-.082-.058-.204-.18-.033-.176.145.004.287.065.429.009.073-.029.128-.135.052-.197-.182-.149-.443-.311-.508-.552-.044-.162.142-.12.251-.102.484.081.932.302 1.423.355.1.011.158-.137.083-.201-.078-.066-.319-.159-.379-.017-.023.054-.018.097.018.143.056.071.199.067.277.075.114.012.139-.131.083-.201-.11-.14-.261-.235-.385-.361-.05-.051-.119-.123-.117-.202.004-.112.134-.087.219-.081.395.027.72.28.992.545s.509.578.815.805c.384.285.824.547 1.265.735.19.081.435.183.646.175.18-.007.374-.152.508-.258.163-.128.333-.265.485-.404l.208-.238.292-.281c.331-.332.638-.687.923-1.058.146-.191.287-.385.422-.584s.297-.406.402-.624c.187-.386-.61-.218-.752-.197-.676.099-1.35.219-2.034.256-.332.018-.673.023-1.002-.034-.417-.072-.829-.196-1.223-.35-.781-.307-1.498-.772-2.103-1.353-.307-.295-.587-.618-.834-.965-.223-.312-.392-.757-.785-.887-.279-.093-.615-.001-.903-.005-.131-.002-.279-.005-.399-.064l-.101-.092-.022-.042.063-.034c.117-.066.253-.125.386-.15.148-.027.085-.254-.063-.227zM31.763 21.688c.972.189 1.972.248 2.961.221 1.016-.028 2.047-.146 3.023-.439.473-.142.939-.328 1.357-.594.128-.081.01-.285-.119-.203-.76.483-1.668.709-2.548.848-1.007.159-2.037.193-3.054.131-.523-.032-1.044-.091-1.558-.191-.148-.029-.212.198-.063.227zM39.838 23.698c-1.492 1.629-3.274 3.005-5.218 4.053-.891.48-1.822.892-2.791 1.189-.443.136-.892.237-1.347.323-.297.056-.597.122-.901.109-.325-.014-.607-.151-.849-.363-.421-.368-.776-.837-1.125-1.27-.377-.467-.73-.956-1.026-1.479-.521-.922-.889-2.031-.856-3.1.005-.171-.01-.439.149-.55.111-.077.276-.062.379.022.174.142.075.403.063.59-.019.301.031.615.066.913.144 1.218.439 2.416.884 3.558.108.277.226.55.348.821s.249.563.234.868c-.026.538-.483.946-.932 1.174-.54.274-1.153.371-1.751.424-.618.054-1.24.077-1.861.077-2.518-.001-5.023-.416-7.441-1.105-1.193-.34-2.372-.743-3.521-1.211-1.115-.454-2.206-.99-3.188-1.691-.413-.295-.849-.612-1.16-1.019-.147-.192-.266-.414-.301-.656-.033-.23-.003-.478.024-.707.058-.501.174-1 .333-1.478.069-.207.147-.413.246-.608.086-.17.19-.391.408-.402.302-.015.343.316.349.541.009.326-.022.652 0 .978.055.812.441 1.498 1.125 1.95.374.247.794.426 1.207.593.572.231 1.158.428 1.748.607 1.361.413 2.754.739 4.161.95.635.095 1.275.168 1.917.188.496.015 1.006.006 1.491-.108.317-.074.667-.207.85-.494.132-.206.181-.545-.011-.729-.216-.207-.556-.301-.832-.39-.479-.153-.969-.27-1.458-.383-1.306-.303-2.622-.564-3.925-.881-1.173-.285-2.398-.577-3.479-1.131-.32-.164-.686-.368-.88-.684-.11-.178-.146-.41-.173-.623-.043-.346-.046-.698-.028-1.046.02-.368.065-.738.159-1.095.068-.26.16-.564.363-.754.066-.062.15-.112.243-.109l.11.061c.097.155.091.389.103.565.041.588.084 1.209.429 1.71.202.294.485.512.812.652.521.223 1.107.338 1.665.42 1.195.177 2.407.298 3.612.379 1.207.081 2.422.098 3.627-.026 1.145-.118 2.275-.363 3.347-.785.139-.055.079-.283-.063-.227-2.337.919-4.881.967-7.353.77-.628-.05-1.255-.116-1.881-.188-.637-.073-1.278-.135-1.904-.277-.474-.107-1.006-.22-1.388-.541-.257-.217-.425-.508-.52-.828-.086-.291-.116-.593-.137-.895-.016-.232-.015-.48-.084-.703-.053-.173-.167-.316-.36-.324-.241-.009-.432.155-.56.343-.178.261-.269.585-.334.89-.079.375-.118.76-.128 1.143-.009.348.004.698.06 1.041.034.209.083.423.204.601.229.337.606.562.962.742.51.259 1.054.451 1.599.622 1.338.421 2.714.716 4.084 1.014 1.123.245 2.28.446 3.369.824.148.051.296.107.434.183l.127.083.045.045.013.022c.056.232-.077.466-.305.599-.357.209-.811.25-1.215.27-.609.031-1.223-.013-1.828-.081-1.442-.162-2.872-.476-4.268-.867-.648-.181-1.291-.383-1.921-.616-.475-.176-.951-.367-1.391-.619-.666-.38-1.118-.985-1.194-1.759-.034-.343-.004-.686-.008-1.03-.002-.234-.02-.508-.199-.682-.125-.122-.31-.173-.48-.138-.204.041-.333.187-.435.357-.228.38-.368.821-.482 1.247-.13.486-.223.99-.244 1.494-.02.499.159.909.488 1.279.347.39.788.708 1.214 1.004.507.352 1.041.662 1.592.94 1.102.557 2.263.999 3.431 1.395 2.441.828 4.981 1.397 7.556 1.568 1.259.084 2.548.096 3.802-.063.573-.072 1.156-.202 1.656-.502.409-.246.785-.633.873-1.118.108-.592-.255-1.15-.471-1.676-.242-.59-.445-1.195-.607-1.812-.164-.625-.287-1.262-.365-1.904-.037-.308-.089-.633-.07-.943.014-.216.086-.441-.034-.64-.155-.257-.525-.335-.772-.167-.152.103-.205.264-.229.438-.033.246-.033.496-.013.743.087 1.102.483 2.168 1.066 3.102.319.511.688.99 1.073 1.452.357.429.719.933 1.2 1.233.53.331 1.126.216 1.704.108.47-.088.933-.194 1.391-.336 2.04-.632 3.937-1.735 5.618-3.039.877-.681 1.701-1.431 2.451-2.25.102-.111-.064-.277-.167-.165zM40.14 8.035c.368.433.768.875 1.29 1.122.476.226 1.023.28 1.508.052l-.143-.185c-.561.691-.966 1.492-1.18 2.357-.03.12.109.188.197.115.172-.144.375-.244.596-.287.092-.018.238-.063.259.058.015.088-.021.19-.059.267-.161.329-.475.548-.611.896-.288.732.135 1.543.88 1.763.146.043.208-.184.063-.227-.429-.127-.763-.502-.796-.955-.017-.235.037-.47.161-.671.101-.164.238-.302.355-.454.156-.203.428-.703.1-.89-.159-.091-.404-.026-.565.025-.204.065-.385.171-.548.308l.197.115c.204-.824.584-1.594 1.12-2.253.085-.104-.018-.243-.143-.185-1 .47-1.923-.443-2.513-1.138-.098-.116-.264.051-.166.166zM38.962 13.849c-.304.375-.744.656-1.16.892-.132.075-.013.278.119.203.43-.244.892-.54 1.207-.929.095-.117-.071-.284-.167-.166zM40.101 8.484c-.862.744-1.586 1.645-2.122 2.649-.264.495-.568 1.069-.564 1.645.004.466.386.865.78 1.071.448.234 1.043.298 1.484.015.127-.082.009-.285-.119-.203-.71.456-2.007-.145-1.899-1.045.063-.522.333-1.024.583-1.478.244-.443.525-.866.84-1.261.355-.444.751-.854 1.182-1.225.115-.099-.052-.265-.166-.167zM38.73 9.695c.248-.04.5.03.694.189.116.095.284-.07.166-.166-.265-.218-.584-.303-.923-.249-.149.024-.086.251.063.227zM39.922 10.211c.32.018.577.262.634.574.027.149.254.086.227-.063-.076-.417-.442-.723-.861-.747-.152-.008-.151.227 0 .236zM39.369 10.618c-.145.148-.317.265-.476.397-.134.111-.297.246-.345.422-.106.385.503.612.682.256.068-.135-.135-.254-.203-.119-.052.103-.245.072-.256-.048-.009-.09.119-.193.175-.245.188-.176.41-.313.591-.497.106-.108-.06-.275-.167-.166zM40.133 10.817c.078.062.063.212-.035.335s-.24.172-.319.11c-.078-.062-.063-.212.035-.335s.24-.172.319-.11zM48.208 7.399c.066.142.046.292-.045.334s-.218-.039-.284-.182c-.066-.142-.046-.292.045-.334s.218.039.284.182zM39.231 10.203c.078.062.063.212-.035.335s-.24.172-.319.11c-.078-.062-.063-.212.035-.335s.24-.172.319-.11zM47.456 8.41c.553.509 1.394.834 2.073.359.509-.356.741-1.022.626-1.624-.268-1.4-2.377-1.987-3.251-.807-.629.85-.005 1.9.512 2.628.087.122.291.005.203-.119-.411-.578-.96-1.376-.667-2.118.233-.59.906-.846 1.502-.779.591.066 1.172.446 1.401 1.007.194.476.085 1.069-.263 1.447-.569.617-1.425.341-1.969-.16-.111-.103-.278.063-.166.166zM44.518 6.698c.204.045 1.075.066.986.424-.05.2-.366.22-.524.228-.164.009-.333.01-.491.064-.256.087-.44.325-.342.602.104.292.453.435.743.417.362-.023.734-.268 1.095-.123.199.08.308.277.156.456-.121.143-.314.205-.473.294-.237.132-.47.371-.421.667.052.312.394.347.625.203l.398-.305c.184-.118.393-.102.407.153.015.278-.168.559-.251.816-.084.261-.113.556.08.778.173.198.487.299.715.131.296-.219.187-.642.164-.95-.014-.182.008-.376.234-.332.154.03.299.107.448.152.756.229 1.604.24 2.328-.103.664-.316 1.192-.912 1.409-1.615.252-.816.078-1.712-.234-2.486-.292-.724-.697-1.45-1.351-1.905-.633-.44-1.468-.601-2.214-.399-.822.222-1.422.79-1.967 1.413-.227.26-.497.547-.864.575-.182.014-.371-.01-.552-.022-.601-.042-1.201-.097-1.803-.127-.729-.036-1.45.008-2.163.171-1.567.359-3.027 1.205-3.853 2.62-.839 1.437-1.005 3.272-.404 4.828.142.367.324.715.546 1.039.085.124.289.006.203-.119-.951-1.384-1.107-3.2-.545-4.767.261-.728.685-1.4 1.249-1.932.561-.529 1.242-.914 1.964-1.176.773-.28 1.594-.442 2.417-.445.571-.002 1.143.048 1.712.092.408.031.842.106 1.252.071.343-.029.628-.237.859-.479.27-.282.502-.592.8-.847.627-.538 1.427-.867 2.258-.703.791.155 1.4.649 1.808 1.332.428.715.754 1.552.764 2.394.009.804-.341 1.555-.994 2.034-.645.473-1.462.574-2.233.413-.169-.035-.337-.08-.498-.14-.129-.049-.26-.108-.401-.113-.329-.01-.433.296-.412.576.017.228.151.95-.304.78-.317-.119-.266-.459-.179-.714.089-.261.24-.519.246-.801.006-.267-.152-.516-.442-.509-.159.004-.3.093-.422.187-.116.089-.284.288-.442.29-.161.002-.146-.169-.093-.275.081-.161.259-.241.411-.318.258-.129.575-.334.525-.669-.044-.296-.346-.46-.619-.489-.379-.039-.735.227-1.109.156-.137-.026-.303-.114-.352-.252-.066-.184.102-.281.254-.318.319-.077.664.013.944-.203.234-.18.225-.5-.004-.679-.273-.213-.66-.196-.982-.268-.147-.033-.21.194-.062.227zM48.989 5.609c.356.024.67.226.847.535.075.132.279.013.203-.119-.219-.384-.611-.622-1.05-.652-.151-.01-.151.225 0 .235zM51.463 6.199c.839-.141 1.668-.531 2.371-1.001.353-.236.693-.508.958-.843.283-.358.431-.79.462-1.246.04-.576-.18-1.164-.678-1.483-.128-.082-.246.122-.119.203.824.528.662 1.786.099 2.444-.515.602-1.253 1.023-1.973 1.332-.378.162-.775.297-1.181.366-.149.025-.086.252.063.227zM47.432 12.004c.261 1.154-.235 2.298-.929 3.202-.278.361-.593.697-.938.995-.354.305-.744.507-1.198.629-.647.173-1.335.223-2.002.17-.151-.012-.15.223 0 .235 1.094.087 2.364-.053 3.243-.764.806-.652 1.496-1.53 1.873-2.499.252-.648.332-1.349.179-2.03-.033-.148-.26-.085-.227.062zM29.508 7.871c-.009.252-.203.462-.462.462-.252 0-.462-.21-.462-.462s.21-.462.462-.462c.259 0 .453.21.462.462.006.151.241.152.235 0-.014-.379-.308-.698-.698-.698-.379 0-.698.318-.698.698s.318.699.698.698c.39-.001.684-.318.698-.698.006-.152-.23-.151-.235 0zM31.317 2.711c1.209-.621 2.471-1.182 3.769-1.59.296-.093.607-.171.92-.151.285.019.7.15.749.481.05.335-.259.574-.522.706-.307.154-.635.271-.952.402l-2.231.924.133.173.475-.665c.064-.089-.041-.193-.133-.173-.417.093-.821.226-1.215.394l.173.133c.029-.147.103-.255.235-.329.115-.065.038-.254-.091-.215-.646.196-1.275.441-1.885.73-.137.065-.017.268.119.203.592-.281 1.202-.516 1.829-.707l-.091-.215c-.181.102-.303.266-.343.47-.021.108.078.173.173.133.374-.159.762-.281 1.158-.37l-.133-.173-.475.665c-.057.079.039.212.133.173l2.288-.947c.34-.141.699-.262 1.022-.44.263-.145.498-.369.559-.674.143-.721-.747-.964-1.292-.904-.348.039-.681.15-1.011.266-.363.127-.724.263-1.082.405-.816.326-1.617.691-2.399 1.092-.135.069-.016.272.119.203zM35.44 1.265c-.268.017-.444.266-.422.526.025.298.321.465.599.445.279-.02.617-.244.555-.563-.076-.388-.508-.433-.825-.365-.148.032-.085.259.063.227.172-.037.497-.058.53.186.024.182-.216.279-.362.282-.135.003-.294-.063-.322-.209-.023-.121.049-.285.185-.293.151-.009.152-.245 0-.236zM52.392 1.554c.294.169.403.526.344.848-.064.354-.284.665-.519.928-.472.527-1.084.897-1.693 1.244-.132.075-.013.278.119.203.709-.403 1.424-.846 1.925-1.504.235-.308.433-.683.419-1.081-.012-.34-.176-.668-.476-.84-.132-.076-.25.128-.119.203zM23.544 4.076c.078.062.063.212-.035.335s-.24.172-.319.11c-.078-.062-.063-.212.035-.335s.24-.172.319-.11zM24.048 3.794c.016.37-.118.715.038 1.073.132.303.381.549.597.792l.119.14c.045.063.033.058-.04.087-.144.057-.295.042-.435-.019-.363-.158-.677-.441-.998-.667-.09-.063-.193.041-.173.133.08.359.265.681.534.932l.052-.197c-.233.067-.506-.048-.715-.149s-.401-.229-.588-.364l-.593-.433c-.1-.069-.217-.124-.242-.255-.024-.123.049-.24.109-.341.411-.697 1.208-1.008 1.98-1.082.442-.043.89-.02 1.328.053.057.01.134-.014.145-.082.034-.214-.004-.416-.139-.589-.121-.154-.324-.287-.378-.483-.046-.169.12-.285.142-.445s-.131-.272-.284-.229l-.271.129c-.133.044-.28.08-.42.093-.236.022-.493-.113-.626-.307-.122-.178-.173-.397-.265-.591-.07-.148-.198-.337-.375-.359-.133-.016-.209.124-.288.212l-.296.352c-.176.227-.32.47-.416.742l.054-.07c-.288.143-.588.268-.842.47-.239.19-.439.464-.55.748-.204.52-.262 1.135-.16 1.685.141.759.668 1.353 1.325 1.727s1.418.562 2.167.612c.699.046 1.419-.025 1.944-.542.787-.776.539-1.986-.1-2.774-.095-.118-.261.05-.166.166.18.223.364.58.454.887.169.576.06 1.167-.387 1.585-.517.483-1.252.493-1.916.428-1.431-.14-3.126-.912-3.13-2.569-.002-.758.207-1.526.901-1.929.163-.095.335-.172.504-.255.159-.077.173-.244.254-.392.18-.332.438-.61.692-.886l-.083.034c.083.009.157.141.192.207l.124.297c.064.162.133.326.254.454.315.334.733.339 1.146.223l.269-.105.068-.042.006-.021-.016.006-.026.054c-.069.139-.145.246-.117.409.068.401.599.568.529 1.005l.145-.082c-.889-.148-1.875-.13-2.688.303-.394.21-.728.528-.936.925-.112.213-.142.466.035.656.087.093.211.156.314.229l.356.261c.243.18.491.359.766.488.266.125.58.248.875.163.083-.024.118-.135.052-.197-.242-.225-.401-.505-.473-.828l-.173.133c.356.25.721.599 1.146.723.201.059.703.041.72-.261.007-.124-.107-.239-.182-.324l-.379-.436c-.133-.164-.256-.351-.278-.566-.025-.249.057-.496.046-.746-.007-.151-.242-.152-.236 0zM13.333 3.304c-.318-.151-.527-.433-.58-.781l-.173.133c.364.256.802.325 1.237.351.513.031 1.016.052 1.521.156 1.057.218 2.048.656 3.019 1.114.255.12.516.24.791.304.285.067.547.036.833-.008.149-.023.086-.249-.063-.227-.276.042-.521.062-.794-.014-.243-.068-.473-.175-.701-.283-.459-.218-.922-.428-1.396-.614-.929-.365-1.887-.608-2.888-.649-.499-.02-1.017-.036-1.441-.334-.094-.066-.187.043-.173.133.062.401.322.748.689.922.136.064.256-.139.119-.204zM12.682 3.485c-.273.045-.472.232-.697.378-.133.086-.267.141-.427.14l-.522-.055c-.555-.032-1.092.274-1.373.747-.029.049-.015.102.018.143.253.313.678.214 1.027.276.407.072.699.399.996.659.329.288.686.485 1.124.55.422.062.923.064 1.316-.123.375-.178.631-.647.391-1.032-.08-.129-.274-.016-.203.119.78 1.49 2.013 2.983 3.824 3.082.207.011.414-.001.619-.034l.316-.069.18-.036.097-.007h.034l.354.135c.486.195.979.38 1.49.502.458.109 1.134.25 1.512-.124.057-.056.038-.143-.024-.185-.819-.548-1.645-1.086-2.47-1.625l-.119.203c.688.339 1.394.651 2.113.916.413.152.864.326 1.311.341.209.007.418-.065.556-.23.073-.087.132-.234.072-.343l-.151-.131c-.36-.238-.768-.419-1.157-.603-.136-.064-.256.139-.119.203.309.146.617.297.917.462l.24.141c.086.058.084.046.003.136-.121.136-.298.141-.463.122-.413-.047-.823-.204-1.21-.348-.436-.163-.864-.346-1.288-.538l-.706-.331c-.136-.067-.246.12-.119.203.825.539 1.651 1.077 2.47 1.625l-.024-.185c-.3.296-.893.154-1.251.071-.495-.115-.973-.292-1.444-.479l-.397-.156c-.281-.082-.604.084-.885.115-.849.095-1.707-.225-2.372-.742-.746-.58-1.276-1.384-1.709-2.212l-.203.119c.128.205.035.467-.143.611-.197.16-.467.2-.712.215-.528.033-1.047-.054-1.469-.39-.325-.258-.601-.594-.991-.759-.186-.079-.378-.097-.578-.106-.212-.009-.446-.005-.591-.185l.018.143c.14-.236.348-.421.601-.53.288-.124.566-.104.868-.064.264.035.501.011.731-.13.222-.136.412-.334.678-.378.149-.023.086-.25-.063-.226zM14.957 6.723c-.217.136-.486.22-.742.22-.355 0-.692-.15-1.011-.29-.317-.138-.636-.281-.98-.331-.368-.054-.741-.01-1.088.122l.149.113c.012-.275.344-.635.612-.689.148-.03.086-.257-.063-.227-.194.039-.37.194-.5.335-.148.161-.275.357-.285.581-.003.071.079.14.149.113.376-.142.782-.178 1.174-.081.357.089.684.262 1.024.398.558.224 1.152.269 1.681-.062.128-.08.01-.284-.119-.203zM38.101 12.156c.007.187.121.341.293.411.204.083.422.02.609-.077.134-.07.016-.273-.119-.203-.164.085-.537.161-.548-.131-.005-.151-.241-.152-.235 0z"/></symbol>

    <symbol id="mail" viewBox="0 0 32 32"><path fill="#fff" d="M10.377 12.613l5.017 2.274s.387.113.606.113.438-.037.606-.113l5.017-2.274s.636-.613.036-.613h-11.318c-.6 0-.291.465.036.613zm11.365 1.432l-5.138 2.344s-.385.117-.604.117-.378-.013-.604-.117l-5.138-2.344c-.26-.118-.258.02-.258.128v4.269c0 .244.372.558.661.558h10.678c.289 0 .661-.314.661-.558v-4.269c0-.107.002-.246-.258-.128z"/></symbol>

    <symbol id="lock" viewBox="0 0 32 32"><path fill="#fff" d="M11 13h10c.552 0 1 .448 1 1v7c0 .552-.448 1-1 1h-10c-.552 0-1-.448-1-1v-7c0-.552.448-1 1-1zm5 9c-3.332 0-3-9.369-3-11.016s1.343-2.984 3-2.984 3 1.336 3 2.984.332 11.016-3 11.016zm.153-2.537c.315-.747.55-1.885.691-3.294.145-1.443.177-2.814.16-4.605l-.005-.581c0-.541-.445-.984-1-.984s-1 .443-1 .984l-.005.581c-.018 1.791.015 3.162.16 4.605.141 1.409.377 2.548.691 3.294l.153.32.153-.32z"/></symbol>

    <symbol id="key" viewBox="0 0 32 32"><path fill="#fff" d="M21.918 12.463c-.386-2.279-2.477-3.801-4.67-3.399s-4.042 2.155-3.656 4.434c.083.491.314 1.259.587 1.81l-3.981 5.911c-.147.218-.23.611-.186.873l.256 1.508c.044.262.287.438.539.392l1.166-.214c.252-.046.572-.267.711-.49l1.575-2.533.014-.017 1.066-.195 1.838-2.968c.605.106 1.471.07 1.984-.024 2.192-.402 3.145-2.809 2.758-5.088zm-1.942 1.169c-.603.895-1.218.264-2.08-.363s-1.642-1.012-1.039-1.907 1.79-1.113 2.651-.486 1.071 1.861.468 2.756z"/></symbol>

    <symbol id="flag" viewBox="0 0 32 32"><path fill="#fff" d="M22.658 13.058c-7.606 2.955-4.525-4.998-10.424-.812l-1.233.43 2.443 9.324h1.346l-1.197-4.567c5.263-4.282 3.132 4.666 9.358-4.114.145-.204-.049-.357-.293-.262z"/></symbol>

    <symbol id="globus" viewBox="0 0 32 32"><path d="M21.16 27.308c.724-1.71 1.246-3.766 1.568-5.976h4.496c-1.256 2.634-3.406 4.756-6.064 5.976zm-16.388-5.976h4.498c.32 2.21.844 4.264 1.566 5.976-2.656-1.218-4.808-3.34-6.064-5.976zm6.064-16.644c-.722 1.71-1.246 3.766-1.566 5.976h-4.498c1.256-2.636 3.406-4.76 6.064-5.976zm16.388 5.976h-4.496c-.322-2.21-.844-4.266-1.568-5.976 2.658 1.218 4.808 3.342 6.064 5.976zm-4.16 3.556h5.238c.084.582.142 1.172.142 1.778 0 .604-.06 1.194-.142 1.778h-5.238c.028-.592.046-1.184.046-1.778s-.018-1.188-.046-1.778zm-7.064-10.666c.776 0 2.392 2.46 3.146 7.112h-6.296c.756-4.65 2.374-7.112 3.148-7.112zm-12.444 12.444c0-.606.056-1.196.142-1.778h5.236c-.026.59-.044 1.184-.044 1.778s.018 1.186.044 1.778h-5.236c-.086-.584-.142-1.174-.142-1.778zm8.936 1.778c-.028-.574-.046-1.16-.046-1.778 0-.616.018-1.206.046-1.778h7.016c.028.572.048 1.16.048 1.778 0 .616-.02 1.204-.048 1.778h-7.016zm3.51 10.666c-.776 0-2.392-2.462-3.148-7.112h6.296c-.756 4.648-2.372 7.112-3.146 7.112zm0-28.444c-8.824 0-16 7.176-16 16s7.176 16 16 16 16-7.176 16-16-7.176-16-16-16z"/></symbol>

    <symbol id="logo" viewBox="0 0 274 32"><path fill="#7ba1bd" d="M188.429 0v11.996c1.321-1.896 3.345-2.77 5.945-2.77 4.176 0 7.415 2.919 7.415 7.756v13.722h-6.669v-11.357c0-2.472-1.236-3.857-3.303-3.857-1.854 0-3.388 1.257-3.388 3.963v11.251h-6.669v-30.705h6.669zm39.489 9.802v20.903h-6.456v-2.259c-1.257 1.641-3.175 2.813-6.009 2.813-5.583 0-9.716-4.858-9.716-11.038 0-6.137 4.134-10.995 9.738-10.995 2.813 0 4.73 1.193 5.988 2.834v-2.259h6.456zm-10.867 5.646c-2.663 0-4.453 2.067-4.453 4.794s1.79 4.794 4.453 4.794c2.621 0 4.475-2.024 4.475-4.794s-1.854-4.794-4.475-4.794zm28.473-6.222c5.583 0 9.738 4.858 9.738 10.995 0 6.179-4.155 11.038-9.738 11.038-2.834 0-4.73-1.151-5.988-2.791v2.237h-6.435v-30.684h6.648v11.783c1.257-1.513 3.09-2.578 5.774-2.578zm-1.598 6.222c-2.621 0-4.453 2.024-4.453 4.794s1.833 4.794 4.453 4.794c2.685 0 4.475-2.067 4.475-4.794s-1.79-4.794-4.475-4.794zm27.535-6.222c.98 0 1.832.17 2.344.32l-.618 6.648c-.895-.298-2.152-.554-3.345-.554-2.365 0-3.814 1.172-3.814 3.772v11.293h-6.669v-20.903h6.392v2.408c1.215-2.024 3.154-2.983 5.711-2.983z"/><path fill="#3a3f43" d="M22.181 9.801v20.902h-6.456v-2.259c-1.257 1.641-3.175 2.813-6.009 2.813-5.582 0-9.716-4.858-9.716-11.037 0-6.136 4.134-10.995 9.737-10.995 2.813 0 4.73 1.193 5.987 2.834v-2.259h6.456zm-10.867 5.647c-2.663 0-4.453 2.067-4.453 4.794s1.79 4.794 4.453 4.794c2.621 0 4.475-2.024 4.475-4.794s-1.854-4.794-4.474-4.794zm26.212-6.222c3.878 0 6.925 1.726 8.928 4.581l-5.22 3.644c-1.044-1.342-2.237-2.003-3.857-2.003-2.322 0-4.304 1.79-4.304 4.794 0 3.026 1.939 4.794 4.261 4.794 1.577 0 2.898-.703 3.942-2.024l5.199 3.707c-2.003 2.834-5.071 4.538-8.949 4.538-6.669 0-11.271-4.624-11.271-11.016s4.602-11.016 11.271-11.016zm22.206 0c3.878 0 6.925 1.726 8.928 4.581l-5.22 3.644c-1.044-1.342-2.237-2.003-3.857-2.003-2.322 0-4.304 1.79-4.304 4.794 0 3.026 1.939 4.794 4.261 4.794 1.577 0 2.898-.703 3.942-2.024l5.199 3.707c-2.003 2.834-5.071 4.538-8.949 4.538-6.669 0-11.272-4.624-11.272-11.016s4.602-11.016 11.272-11.016zm22.27 0c6.541 0 11.357 4.688 11.357 11.016s-4.815 11.016-11.357 11.016c-6.52 0-11.335-4.688-11.335-11.016s4.815-11.016 11.335-11.016zm0 6.222c-2.599 0-4.517 1.982-4.517 4.794s1.918 4.794 4.517 4.794c2.621 0 4.538-1.982 4.538-4.794s-1.918-4.794-4.538-4.794zm35.48-5.647v11.953c0 6.541-4.517 9.503-10.078 9.503-5.582 0-10.1-2.962-10.1-9.524v-11.932h6.669v11.357c0 2.663 1.428 3.878 3.43 3.878 1.982 0 3.43-1.215 3.43-3.878v-11.357h6.648zm17.668-.575c4.176 0 7.415 2.919 7.415 7.756v13.722h-6.669v-11.357c0-2.472-1.236-3.857-3.303-3.857-1.854 0-3.388 1.257-3.388 3.963v11.25h-6.669v-20.902h6.392v2.621c1.321-2.195 3.43-3.196 6.222-3.196zm28.321.575v5.902h-7.138v6.115c0 2.408 1.278 3.217 2.962 3.217 1.236 0 2.578-.682 3.622-1.3l2.301 5.199c-1.96 1.364-4.048 2.322-7.415 2.322-5.604 0-8.139-3.345-8.139-8.587v-6.967h-3.899v-5.902h3.899v-6.094h6.669v6.094h7.138zm9.656 12.337c2.429 0 4.538 2.088 4.538 4.517 0 2.472-2.109 4.602-4.538 4.602-2.45 0-4.581-2.131-4.581-4.602 0-2.429 2.131-4.517 4.581-4.517z"/></symbol>


    <symbol id="facebook" viewBox="0 0 32 32"><path fill="#fff" d="M16.857 23.111v-7.112h1.963l.26-2.451h-2.223l.003-1.227c0-.639.061-.982.979-.982h1.227v-2.451h-1.963c-2.358 0-3.189 1.189-3.189 3.188v1.471h-1.47v2.451h1.47v7.112h2.943z"/></symbol>

    <symbol id="vk" viewBox="0 0 32 32"><path fill="#fff" d="M16.715 20.407s.286-.031.433-.186c.134-.142.13-.409.13-.409s-.018-1.249.573-1.433c.582-.181 1.33 1.208 2.123 1.742.599.404 1.054.316 1.054.316l2.12-.029s1.109-.067.583-.923c-.043-.07-.307-.633-1.576-1.79-1.33-1.211-1.151-1.015.45-3.11.975-1.276 1.365-2.055 1.243-2.388-.116-.319-.833-.234-.833-.234l-2.387.014s-.177-.024-.308.053c-.128.075-.211.251-.211.251s-.377.987-.881 1.827c-1.063 1.771-1.488 1.865-1.661 1.755-.404-.257-.304-1.03-.304-1.58 0-1.717.265-2.432-.516-2.618-.259-.062-.45-.102-1.114-.109-.852-.008-1.572.003-1.98.199-.272.13-.481.421-.353.438.158.021.515.095.704.348.245.327.236 1.06.236 1.06s.141 2.021-.328 2.272c-.321.172-.762-.179-1.71-1.786-.485-.823-.852-1.733-.852-1.733s-.071-.17-.197-.261c-.153-.111-.366-.145-.366-.145l-2.268.014s-.341.009-.466.155c-.111.129-.009.396-.009.396s1.775 4.078 3.786 6.133c1.844 1.884 3.937 1.76 3.937 1.76h.949z"/></symbol>

    <symbol id="instagram" viewBox="0 0 32 32"><path fill="#fff" style="stroke:#fff;stroke-opacity:1;stroke-width:0.3;stroke-miterlimit:4;stroke-dasharray:none" d="M 13.633173,9.85 C 11.714904,9.85 10.15,11.414904 10.15,13.333173 v 5.033654 c 0,1.918269 1.564904,3.483173 3.483173,3.483173 h 5.033654 C 20.585096,21.85 22.15,20.285096 22.15,18.366827 V 13.333173 C 22.15,11.414904 20.585096,9.85 18.666827,9.85 Z m 0,0.923077 h 5.033654 c 1.41887,0 2.560096,1.139423 2.560096,2.560096 v 5.033654 c 0,1.41887 -1.139423,2.560096 -2.560096,2.560096 h -5.033654 c -1.41887,0 -2.560096,-1.139423 -2.560096,-2.560096 v -5.033654 c 0,-1.41887 1.139423,-2.560096 2.560096,-2.560096 z m 5.978365,0.923077 c -0.382211,0 -0.692307,0.310096 -0.692307,0.692307 0,0.382212 0.310096,0.692308 0.692307,0.692308 0.382212,0 0.692308,-0.310096 0.692308,-0.692308 0,-0.382211 -0.310096,-0.692307 -0.692308,-0.692307 z M 16.15,12.619231 c -1.779447,0 -3.230769,1.451322 -3.230769,3.230769 0,1.779447 1.451322,3.230769 3.230769,3.230769 1.779447,0 3.230769,-1.451322 3.230769,-3.230769 0,-1.779447 -1.451322,-3.230769 -3.230769,-3.230769 z m 0,0.923077 c 1.280048,0 2.307692,1.027644 2.307692,2.307692 0,1.280048 -1.027644,2.307692 -2.307692,2.307692 -1.280048,0 -2.307692,-1.027644 -2.307692,-2.307692 0,-1.280048 1.027644,-2.307692 2.307692,-2.307692 z"/></symbol>

    <symbol id="twitter" viewBox="0 0 32 32"><path fill="#fff" d="M16.045 13.504l.028.461-.466-.056c-1.697-.217-3.18-.951-4.439-2.184l-.616-.612-.159.452c-.336 1.007-.121 2.071.578 2.787.373.395.289.452-.354.217-.224-.075-.42-.132-.438-.104-.065.066.159.923.336 1.262.242.471.737.932 1.278 1.205l.457.217-.541.009c-.522 0-.541.009-.485.207.187.612.923 1.262 1.744 1.544l.578.198-.504.301c-.746.433-1.623.678-2.499.697-.42.009-.765.047-.765.075 0 .094 1.138.621 1.8.829 1.987.612 4.346.348 6.118-.697 1.259-.744 2.518-2.222 3.106-3.653.317-.763.634-2.156.634-2.825 0-.433.028-.49.55-1.007.308-.301.597-.631.653-.725.093-.179.084-.179-.392-.019-.793.282-.905.245-.513-.179.289-.301.634-.847.634-1.007 0-.028-.14.019-.298.104-.168.094-.541.235-.821.32l-.504.16-.457-.311c-.252-.169-.606-.358-.793-.414-.476-.132-1.203-.113-1.632.038-1.166.424-1.903 1.516-1.819 2.712z"/></symbol>

    <symbol id="github" viewBox="0 0 32 32"><path fill="#fff" d="M15.92 9.778c-3.392 0-6.143 2.751-6.143 6.143 0 2.714 1.76 5.016 4.201 5.829.307.056.419-.133.419-.296l-.008-1.045c-1.709.371-2.069-.823-2.069-.823-.279-.71-.682-.899-.682-.899-.558-.381.042-.373.042-.373.617.043.941.633.941.633.548.939 1.438.668 1.788.511.056-.397.214-.668.39-.821-1.364-.155-2.798-.682-2.798-3.036 0-.671.239-1.219.632-1.648-.063-.155-.274-.78.06-1.625 0 0 .516-.166 1.689.629.49-.136 1.016-.204 1.538-.207.522.002 1.047.071 1.538.207 1.173-.795 1.688-.629 1.688-.629.335.845.124 1.47.061 1.625.394.43.632.978.632 1.648 0 2.36-1.436 2.879-2.805 3.032.221.189.417.565.417 1.137l-.008 1.685c0 .164.11.355.422.295 2.439-.814 4.198-3.115 4.198-5.828 0-3.393-2.751-6.143-6.143-6.143z"/></symbol>

    <symbol id="liveid" viewBox="0 0 32 32"><path fill="#fff" d="M10.667 10.667h4.444v4.444h-4.444v-4.444zm0 6.222h4.444v4.444h-4.444v-4.444zm6.222-6.222h4.444v4.444h-4.444v-4.444zm0 6.222h4.444v4.444h-4.444v-4.444z"/></symbol>

    <symbol id="google" viewBox="0 0 32 32"><path fill="#fff" d="M16.109 17.067h3.087c-.124.785-.933 2.301-3.087 2.301-1.858 0-3.374-1.509-3.374-3.368s1.516-3.368 3.374-3.368c1.057 0 1.765.442 2.169.823l1.477-1.394c-.948-.869-2.177-1.394-3.646-1.394-3.009 0-5.442 2.385-5.442 5.333s2.433 5.333 5.442 5.333c3.141 0 5.224-2.164 5.224-5.211 0-.35-.039-.617-.086-.884h-5.139v1.829z"/></symbol>

    <symbol id="drop-arrow" viewBox="0 0 32 32"><path d="M8.778 10l-2.778 2.608 10 9.392 2.784-2.608 7.216-6.778-2.776-2.61-7.22 6.778z"/></symbol>

    <symbol id="exit" viewBox="0 0 16 18"><path d="M12.173 8l-1.829-1.829 1.414-1.414 4.243 4.243-1.414 1.414-2.828 2.828-1.414-1.414 1.828-1.828h-6.174v-2h6.175zm-10.174-6v14h9.997v2h-11.996v-18h11.996v2h-9.997z"/></symbol>

    <symbol id="header-user" viewBox="0 0 32 32">
        <path d="M16.007 17.777h-.014c-8.818.004-15.992 6.382-15.992 14.222h4c0-5.883 5.382-10.667 12-10.667 6.616 0 12 4.784 12 10.667h4c0-7.84-7.176-14.219-15.994-14.222zM20.444 8c0 2.45-1.995 4.444-4.444 4.444s-4.444-1.995-4.444-4.444c0-2.45 1.995-4.444 4.444-4.444s4.444 1.995 4.444 4.444zm-4.449 8h.01c4.409-.004 7.995-3.591 7.995-8 0-4.411-3.589-8-8-8s-8 3.589-8 8c0 4.409 3.586 7.996 7.995 8z" />
    </symbol>

    <symbol id="icon-test-bold" viewBox="0 0 888.48353 140.92102">
      <g
      transform="translate(-5.9926181,-34.974576)"
      id="layer1">
         <g
            id="flowRoot4493"
            style="fill:#000000;fill-opacity:1;stroke:#000000;stroke-width:1.88976383"
            aria-label="CONFETTI">
            <path
               id="path4503"
               d="m 111.75,167.82571 q -14.71875,7.125 -38.4375,7.125 -30.9375,0 -48.65625,-18.1875 Q 6.9375,138.57571 6.9375,108.29446 q 0,-32.250002 19.875,-52.312502 19.96875,-20.0625 51.75,-20.0625 19.6875,0 33.1875,4.96875 v 29.15625 q -13.5,-8.0625 -30.75,-8.0625 -18.9375,0 -30.5625,11.90625 -11.625,11.90625 -11.625,32.250002 0,19.5 10.96875,31.125 10.96875,11.53125 29.53125,11.53125 17.71875,0 32.4375,-8.625 z" />
            <path
               id="path4505"
               d="m 189.9375,174.95071 q -28.875,0 -47.0625,-18.75 -18.1875,-18.84375 -18.1875,-49.03125 0,-31.875002 18.46875,-51.562502 18.46875,-19.6875 48.9375,-19.6875 28.78125,0 46.5,18.84375 17.8125,18.84375 17.8125,49.687502 0,31.6875 -18.46875,51.09375 -18.375,19.40625 -48,19.40625 z M 191.25,61.981958 q -15.9375,0 -25.3125,12 -9.375,11.90625 -9.375,31.593752 0,19.96875 9.375,31.59375 9.375,11.625 24.5625,11.625 15.65625,0 24.84375,-11.25 9.1875,-11.34375 9.1875,-31.40625 0,-20.906252 -8.90625,-32.531252 -8.90625,-11.625 -24.375,-11.625 z" />
            <path
               id="path4507"
               d="M 399.5625,172.60696 H 369 L 313.59375,88.138208 q -4.875,-7.40625 -6.75,-11.15625 h -0.375 q 0.75,7.125 0.75,21.75 V 172.60696 H 278.625 V 38.169458 h 32.625 l 53.34375,81.843752 q 3.65625,5.53125 6.75,10.96875 h 0.375 q -0.75,-4.6875 -0.75,-18.46875 V 38.169458 h 28.59375 z" />
            <path
               id="path4509"
               d="m 508.21875,62.825708 h -47.4375 v 33 H 504.375 v 24.562502 h -43.59375 v 52.21875 H 430.5 V 38.169458 h 77.71875 z" />
            <path
               id="path4511"
               d="M 610.875,172.60696 H 530.25 V 38.169458 h 77.53125 v 24.65625 h -47.25 v 29.90625 H 604.5 v 24.562502 h -43.96875 v 30.75 H 610.875 Z" />
            <path
               id="path4513"
               d="M 728.90625,62.825708 H 690.5625 V 172.60696 h -30.375 V 62.825708 h -38.15625 v -24.65625 h 106.875 z" />
            <path
               id="path4515"
               d="M 845.15625,62.825708 H 806.8125 V 172.60696 h -30.375 V 62.825708 h -38.15625 v -24.65625 h 106.875 z" />
            <path
               id="path4517"
               d="M 893.53125,172.60696 H 863.25 V 38.169458 h 30.28125 z" />
         </g>
      </g>
    </symbol>

    <symbol id="icon-test" viewBox="0 0 179.87355 48.158859">

    <g
     aria-label="confetti"
     style="font-style:normal;font-variant:normal;font-weight:500;font-stretch:normal;font-size:55px;line-height:1.25;font-family:'Ink Free';-inkscape-font-specification:'Ink Free, Normal';font-variant-ligatures:normal;font-variant-caps:normal;font-variant-numeric:normal;font-feature-settings:normal;text-align:start;letter-spacing:0px;word-spacing:0px;writing-mode:lr-tb;text-anchor:start;fill:#000000;fill-opacity:1;stroke:#000000;stroke-width:1.13385832;stroke-linejoin:round;stroke-miterlimit:4;stroke-dasharray:none;stroke-opacity:1"
     id="text4615"
     transform="translate(-0.80807084,40.881929)">
    <path
       d="m 19.47,-12.1 q 0,0.33 -1.155,2.035 -1.1,1.705 -2.255,3.08 -2.86,3.465 -5.17,5.335 -2.255,1.87 -4.73,1.87 -2.09,0 -3.465,-1.815 -1.32,-1.815 -1.32,-4.18 0,-3.52 1.87,-8.91 1.87,-5.39 4.73,-9.35 2.86,-3.96 5.72,-3.96 1.21,0 2.09,0.88 0.495,0.495 0.935,1.32 0.44,0.825 0.44,1.485 0,0.935 -0.275,2.2 -0.22,1.21 -0.495,1.21 -0.55,0 -0.715,-0.605 -0.165,-0.605 -0.22,-1.54 -0.165,-1.43 -0.33,-1.87 -0.165,-0.495 -0.495,-0.495 -2.585,0 -5.005,3.63 -2.42,3.575 -3.96,8.36 -1.54,4.73 -1.54,7.315 0,3.63 2.42,3.63 1.76,0 3.19,-0.88 1.485,-0.88 3.08,-2.475 2.97,-3.025 4.62,-5.225 0.11,-0.165 0.605,-0.825 0.55,-0.715 0.77,-0.715 0.66,0 0.66,0.495 z"
       style="stroke:#000000;stroke-width:1.13385832;stroke-linejoin:round;stroke-miterlimit:4;stroke-dasharray:none;stroke-opacity:1"/>
    <path
       d="m 42.300156,-11.385 q 0,2.145 -1.595,4.95 -1.595,2.805 -4.51,4.84 -2.915,1.98 -6.655,1.98 -3.685,0 -5.445,-2.035 -1.76,-2.035 -1.76,-5.06 0,-2.64 0.935,-6.545 0.99,-3.905 2.75,-6.985 0.11,-0.22 0.88,-1.595 0.825,-1.43 1.815,-2.145 0.99,-0.77 2.09,-0.77 0.495,0 0.88,0.275 0.44,0.22 0.44,0.605 0,0.11 -0.33,0.55 -0.275,0.385 -0.44,0.605 -1.87,2.255 -3.025,4.455 -1.54,2.805 -2.42,5.555 -0.825,2.75 -0.825,5.995 0,4.345 5.28,4.345 2.475,0 4.565,-1.43 2.145,-1.43 3.41,-3.465 1.265,-2.09 1.265,-3.795 0,-1.925 -1.265,-3.355 -1.265,-1.43 -3.465,-3.025 -1.43,-1.045 -2.09,-1.705 -0.66,-0.66 -0.66,-1.1 0,-0.66 0.935,-1.045 0.935,-0.44 2.2,-0.44 0.715,0 0.935,0.11 0.22,0.055 0.22,0.275 0,0.11 -0.22,0.385 -0.165,0.22 -0.165,0.385 0,0.165 1.1,1.1 2.2,1.815 3.685,3.685 1.485,1.87 1.485,4.4 z"
       style="stroke:#000000;stroke-width:1.13385832;stroke-linejoin:round;stroke-miterlimit:4;stroke-dasharray:none;stroke-opacity:1"/>
    <path
       d="m 65.605547,0.385 q 0,0.66 -0.55,1.1 -0.55,0.495 -1.32,0.495 -0.55,0 -0.935,-0.275 -0.385,-0.22 -0.385,-0.66 0,-2.255 0.33,-6.985 0.33,-5.06 0.33,-8.415 0,-3.245 -0.22,-5.28 -0.165,-2.09 -0.88,-2.09 -1.87,0 -4.125,4.675 -2.2,4.62 -5.06,12.21 l -0.825,2.2 q -0.22,0.55 -0.77,0.88 -0.495,0.33 -1.045,0.33 -0.66,0 -0.88,-0.11 -0.22,-0.11 -0.275,-0.66 l -0.44,-4.51 -0.825,-7.92 q -0.385,-4.73 -0.935,-8.25 -0.165,-0.825 -0.165,-1.265 0,-0.825 0.715,-1.32 0.715,-0.55 1.65,-0.55 0.55,0 0.77,2.64 0.275,2.64 0.55,8.525 l 0.22,2.915 q 0.44,5.555 0.495,7.04 0.165,-0.33 0.275,-0.715 0.165,-0.44 0.385,-0.935 2.97,-7.7 5.555,-12.815 2.64,-5.17 5.06,-5.17 1.705,0 2.31,2.915 0.66,2.86 0.825,7.37 0.165,5.005 0.165,14.63 z"
       style="stroke:#000000;stroke-width:1.13385832;stroke-linejoin:round;stroke-miterlimit:4;stroke-dasharray:none;stroke-opacity:1"/>
    <path
       d="m 93.982109,-34.98 q 0,0.66 -0.33,1.76 -0.275,1.045 -0.66,1.045 -0.385,0 -0.605,-0.33 -0.165,-0.385 -0.33,-0.99 -0.605,-1.87 -1.87,-3.135 -1.21,-1.32 -2.64,-1.32 -3.85,0 -5.555,5.225 -1.65,5.17 -1.65,12.155 1.65,-0.11 3.685,-0.495 2.09,-0.44 2.75,-0.55 3.905,-0.825 5.17,-0.825 1.1,0 1.1,0.99 0,0.77 -0.33,1.65 -0.33,0.88 -0.99,0.88 -0.55,0 -1.1,-0.22 -0.77,-0.33 -2.09,-0.33 -0.88,0 -3.63,0.55 l -4.4,0.66 q 0,1.375 0.33,7.645 0.55,9.68 0.55,15.455 0,1.045 -0.22,1.43 -0.22,0.44 -0.88,0.44 -0.77,0 -1.155,-0.88 -0.385,-0.88 -0.385,-1.98 0,-6.325 -0.825,-19.855 l -0.11,-1.76 q -0.44,0.055 -2.86,0.495 -2.365,0.44 -3.465,0.44 -0.605,0 -1.045,-0.275 -0.385,-0.275 -0.385,-0.825 0,-1.375 0.99,-1.43 1.43,-0.055 3.465,-0.22 2.035,-0.22 3.135,-0.44 0,-9.02 2.42,-14.63 2.475,-5.665 7.315,-5.665 1.76,0 3.245,0.88 1.54,0.88 2.42,2.145 0.935,1.265 0.935,2.31 z"
       style="stroke:#000000;stroke-width:1.13385832;stroke-linejoin:round;stroke-miterlimit:4;stroke-dasharray:none;stroke-opacity:1"/>
    <path
       d="m 115.97781,-14.025 q 0.385,0 0.385,0.825 0,0.99 -1.485,4.345 -1.43,3.355 -4.4,6.215 -2.915,2.86 -7.205,2.86 -3.519997,0 -5.884998,-2.2 -2.365,-2.2 -2.365,-6.765 0,-4.29 1.980001,-8.47 1.979999,-4.235 5.169997,-6.875 3.19,-2.695 6.6,-2.695 2.035,0 3.41,0.935 1.43,0.88 1.43,2.585 0,1.925 -2.2,3.74 -2.145,1.815 -5.61,3.19 -3.465,1.375 -7.149998,1.98 -0.66,2.53 -0.66,4.95 0,3.19 1.485,4.95 1.539998,1.76 4.344998,1.76 4.235,0 6.875,-3.025 2.64,-3.025 4.4,-6.82 0.11,-0.22 0.385,-0.825 0.275,-0.66 0.495,-0.66 z m -4.84,-8.635 q 0,-0.88 -0.935,-1.375 -0.88,-0.495 -2.09,-0.495 -2.09,0 -4.015,1.375 -1.925,1.375 -3.245,3.3 -1.264998,1.925 -1.649998,3.41 2.529998,-0.275 5.334998,-1.43 2.805,-1.155 4.675,-2.53 1.925,-1.375 1.925,-2.255 z"
       style="stroke:#000000;stroke-width:1.13385832;stroke-linejoin:round;stroke-miterlimit:4;stroke-dasharray:none;stroke-opacity:1"/>
    <path
       d="m 145.11922,-22.77 q 0,0.935 -0.825,1.43 -0.77,0.495 -2.86,0.77 -5.06,0.88 -5.665,0.99 l -3.575,0.605 q 0,2.86 0.055,5.995 0.11,3.135 0.275,5.5 0.22,3.19 0.77,4.895 0.55,1.705 0.605,1.925 0,0.55 -0.715,0.99 -0.66,0.495 -1.265,0.495 -0.33,0 -0.55,-0.22 -0.22,-0.165 -0.385,-0.605 -0.33,-0.77 -0.66,-2.86 -0.275,-2.09 -0.44,-4.62 -0.165,-2.255 -0.275,-5.225 -0.055,-3.025 -0.055,-5.83 -3.08,0.495 -6.325,1.21 -2.915,0.605 -3.465,0.605 -0.66,0 -1.265,-0.385 -0.55,-0.385 -0.55,-1.045 0,-0.715 0.495,-0.935 0.495,-0.22 1.65,-0.22 0.825,0 2.42,-0.275 1.595,-0.33 2.035,-0.44 3.685,-0.715 5.005,-0.935 0,-1.155 -0.11,-3.025 -0.11,-2.53 -0.11,-3.85 0,-2.145 0.11,-3.3 0.165,-1.21 0.55,-2.145 0.44,-1.1 1.65,-1.1 0.495,0 0.66,0.165 0.165,0.165 0.165,0.605 0,0.33 -0.275,1.925 -0.275,1.595 -0.275,4.235 0,2.035 0.11,4.565 l 0.055,1.485 q 2.475,-0.385 9.79,-2.035 0.44,-0.11 0.715,-0.77 0.33,-0.66 0.66,-0.66 0.605,0 1.21,0.715 0.66,0.66 0.66,1.375 z"
       style="stroke:#000000;stroke-width:1.13385832;stroke-linejoin:round;stroke-miterlimit:4;stroke-dasharray:none;stroke-opacity:1"/>
    <path
       d="m 172.29695,-22.77 q 0,0.935 -0.825,1.43 -0.77,0.495 -2.86,0.77 -5.06,0.88 -5.665,0.99 l -3.575,0.605 q 0,2.86 0.055,5.995 0.11,3.135 0.275,5.5 0.22,3.19 0.77,4.895 0.55,1.705 0.605,1.925 0,0.55 -0.715,0.99 -0.66,0.495 -1.265,0.495 -0.33,0 -0.55,-0.22 -0.22,-0.165 -0.385,-0.605 -0.33,-0.77 -0.66,-2.86 -0.275,-2.09 -0.44,-4.62 -0.165,-2.255 -0.275,-5.225 -0.055,-3.025 -0.055,-5.83 -3.08,0.495 -6.325,1.21 -2.915,0.605 -3.465,0.605 -0.66,0 -1.265,-0.385 -0.55,-0.385 -0.55,-1.045 0,-0.715 0.495,-0.935 0.495,-0.22 1.65,-0.22 0.825,0 2.42,-0.275 1.595,-0.33 2.035,-0.44 3.685,-0.715 5.005,-0.935 0,-1.155 -0.11,-3.025 -0.11,-2.53 -0.11,-3.85 0,-2.145 0.11,-3.3 0.165,-1.21 0.55,-2.145 0.44,-1.1 1.65,-1.1 0.495,0 0.66,0.165 0.165,0.165 0.165,0.605 0,0.33 -0.275,1.925 -0.275,1.595 -0.275,4.235 0,2.035 0.11,4.565 l 0.055,1.485 q 2.475,-0.385 9.79,-2.035 0.44,-0.11 0.715,-0.77 0.33,-0.66 0.66,-0.66 0.605,0 1.21,0.715 0.66,0.66 0.66,1.375 z"
       style="stroke:#000000;stroke-width:1.13385832;stroke-linejoin:round;stroke-miterlimit:4;stroke-dasharray:none;stroke-opacity:1"/>
    <path
       d="m 178.73969,-34.43 q 0,0.825 -1.815,0.825 -0.935,0 -1.925,-0.77 -0.935,-0.77 -0.935,-1.265 0,-0.605 0.55,-1.155 0.605,-0.55 1.21,-0.55 0,0 0.385,0.165 0.44,0.11 0.99,0.715 0.44,0.44 0.99,1.155 0.55,0.715 0.55,0.88 z m 1.375,34.595 q 0,0.55 -0.495,0.825 -0.44,0.33 -1.045,0.275 -0.77,-0.055 -1.155,-2.475 -0.33,-2.42 -0.715,-9.185 -0.22,-4.455 -0.385,-8.69 -0.165,-4.29 -0.22,-6.6 0,-0.605 0.165,-0.88 0.22,-0.33 0.77,-0.33 1.265,0 1.595,1.045 0.33,1.045 0.33,4.015 l -0.055,6.49 q 0,5.555 0.33,8.91 0,0.165 0.495,3.52 0.385,2.31 0.385,3.08 z"
       style="stroke:#000000;stroke-width:1.13385832;stroke-linejoin:round;stroke-miterlimit:4;stroke-dasharray:none;stroke-opacity:1"/>
  </g>
    
    </symbol>
</svg>
